<svg width="24" height="24" viewBox="0 0 24 24" fill="none" xmlns="http://www.w3.org/2000/svg">
<path d="M12.73 11.4725V11.4399C12.7233 11.4509 12.7161 11.462 12.7089 11.4725H12.73Z" fill="#F39200"/>
<path d="M20.8555 1.97559H3.02471C2.17127 1.97559 1.47913 2.65122 1.47913 3.48392V21.5234C1.47913 22.3557 2.17127 23.0313 3.02471 23.0313H20.8555C21.7102 23.0313 22.4023 22.3552 22.4023 21.5234V3.48392C22.4023 2.6508 21.7098 1.97559 20.8555 1.97559ZM7.82107 19.6019H4.66089V10.0943H7.82107V19.6019ZM6.2412 8.79548H6.22003C5.16 8.79548 4.4742 8.06523 4.4742 7.15294C4.4742 6.22034 5.18117 5.51041 6.26194 5.51041C7.34313 5.51041 8.00819 6.22034 8.02935 7.15294C8.02935 8.06523 7.34271 8.79548 6.2412 8.79548ZM19.2168 19.6019H16.0566V14.5143C16.0566 13.2367 15.5994 12.3646 14.456 12.3646C13.5831 12.3646 13.0632 12.9526 12.8342 13.5207C12.7508 13.7235 12.7305 14.0071 12.7305 14.2916V19.6015H9.57028C9.57028 19.6015 9.61177 10.985 9.57028 10.0938H12.7305V11.4396C13.1504 10.7919 13.9014 9.86947 15.5791 9.86947C17.6581 9.86947 19.2172 11.2288 19.2172 14.1494L19.2168 19.6019Z" fill="#F39200"/>
</svg>
